<svg width="22" height="23" viewBox="0 0 22 23" fill="none" xmlns="http://www.w3.org/2000/svg">
<g clip-path="url(#clip0_68_55)">
<path d="M10.2344 4.49199H4.03821C3.56869 4.49199 3.1184 4.67863 2.7864 5.01086C2.4544 5.34308 2.26788 5.79367 2.26788 6.26351V18.6641C2.26788 19.134 2.4544 19.5845 2.7864 19.9168C3.1184 20.249 3.56869 20.4356 4.03821 20.4356H16.4305C16.9 20.4356 17.3503 20.249 17.6823 19.9168C18.0143 19.5845 18.2008 19.134 18.2008 18.6641V12.4638M16.8731 3.16335C17.2252 2.81098 17.7028 2.61301 18.2008 2.61301C18.6988 2.61301 19.1764 2.81098 19.5286 3.16335C19.8807 3.51573 20.0785 3.99366 20.0785 4.49199C20.0785 4.99033 19.8807 5.46825 19.5286 5.82063L11.1195 14.2353L7.57887 15.1211L8.46403 11.5781L16.8731 3.16335Z" stroke="white" stroke-width="3" stroke-linecap="round" stroke-linejoin="round"/>
</g>
<defs>
<clipPath id="clip0_68_55">
<rect width="21.2439" height="21.2582" fill="white" transform="translate(0.497559 0.948959)"/>
</clipPath>
</defs>
</svg>
