<svg width="27" height="22" viewBox="0 0 27 22" fill="none" xmlns="http://www.w3.org/2000/svg">
<rect x="1.09116" y="0.101526" width="25.2966" height="4.68005" transform="matrix(0.790702 -0.612201 0.664184 0.747569 1.10925 17.4937)" stroke="white" stroke-width="1.5"/>
<line y1="-0.75" x2="1.76573" y2="-0.75" transform="matrix(0.664184 0.747569 -0.790702 0.612201 2.9472 16.3664)" stroke="white" stroke-width="1.5"/>
<line y1="-0.75" x2="1.76573" y2="-0.75" transform="matrix(0.664184 0.747569 -0.790702 0.612201 4.35974 15.2728)" stroke="white" stroke-width="1.5"/>
<line y1="-0.75" x2="1.76573" y2="-0.75" transform="matrix(0.664184 0.747569 -0.790702 0.612201 5.77228 14.1791)" stroke="white" stroke-width="1.5"/>
<path d="M7.66638 12.7125L9.87075 15.2" stroke="white" stroke-width="1.5"/>
<line y1="-0.75" x2="1.76573" y2="-0.75" transform="matrix(0.664184 0.747569 -0.790702 0.612201 8.59735 11.9918)" stroke="white" stroke-width="1.5"/>
<line y1="-0.75" x2="1.76573" y2="-0.75" transform="matrix(0.664184 0.747569 -0.790702 0.612201 10.0099 10.8981)" stroke="white" stroke-width="1.5"/>
<line y1="-0.75" x2="1.76573" y2="-0.75" transform="matrix(0.664184 0.747569 -0.790702 0.612201 11.4224 9.80447)" stroke="white" stroke-width="1.5"/>
<line y1="-0.75" x2="1.76573" y2="-0.75" transform="matrix(0.664184 0.747569 -0.790702 0.612201 12.835 8.71075)" stroke="white" stroke-width="1.5"/>
<line y1="-0.75" x2="1.76573" y2="-0.75" transform="matrix(0.664184 0.747569 -0.790702 0.612201 14.2475 7.61713)" stroke="white" stroke-width="1.5"/>
<path d="M16.1417 6.15052L17.9434 7.98732" stroke="white" stroke-width="1.5"/>
<line y1="-0.75" x2="1.76573" y2="-0.75" transform="matrix(0.664184 0.747569 -0.790702 0.612201 17.0726 5.42978)" stroke="white" stroke-width="1.5"/>
<line y1="-0.75" x2="1.76573" y2="-0.75" transform="matrix(0.664184 0.747569 -0.790702 0.612201 18.4852 4.33612)" stroke="white" stroke-width="1.5"/>
<line y1="-0.75" x2="1.76573" y2="-0.75" transform="matrix(0.664184 0.747569 -0.790702 0.612201 19.8977 3.24246)" stroke="white" stroke-width="1.5"/>
<line y1="-0.75" x2="1.76573" y2="-0.75" transform="matrix(0.664184 0.747569 -0.790702 0.612201 21.3102 2.1488)" stroke="white" stroke-width="1.5"/>
</svg>
