<svg width="59" height="88" viewBox="0 0 59 88" fill="none" xmlns="http://www.w3.org/2000/svg">
<mask id="path-1-outside-1_18_143" maskUnits="userSpaceOnUse" x="19" y="63" width="22" height="26" fill="black">
<rect fill="white" x="19" y="63" width="22" height="26"/>
<path d="M39.4886 64.7273V88H35.2386L25.1136 73.3523H24.9432V88H20.0227V64.7273H24.3409L34.3864 79.3636H34.5909V64.7273H39.4886Z"/>
</mask>
<path d="M39.4886 64.7273V88H35.2386L25.1136 73.3523H24.9432V88H20.0227V64.7273H24.3409L34.3864 79.3636H34.5909V64.7273H39.4886Z" fill="#005F86"/>
<path d="M39.4886 64.7273H40.4886V63.7273H39.4886V64.7273ZM39.4886 88V89H40.4886V88H39.4886ZM35.2386 88L34.416 88.5686L34.7142 89H35.2386V88ZM25.1136 73.3523L25.9362 72.7837L25.6381 72.3523H25.1136V73.3523ZM24.9432 73.3523V72.3523H23.9432V73.3523H24.9432ZM24.9432 88V89H25.9432V88H24.9432ZM20.0227 88H19.0227V89H20.0227V88ZM20.0227 64.7273V63.7273H19.0227V64.7273H20.0227ZM24.3409 64.7273L25.1654 64.1614L24.8674 63.7273H24.3409V64.7273ZM34.3864 79.3636L33.5619 79.9295L33.8598 80.3636H34.3864V79.3636ZM34.5909 79.3636V80.3636H35.5909V79.3636H34.5909ZM34.5909 64.7273V63.7273H33.5909V64.7273H34.5909ZM38.4886 64.7273V88H40.4886V64.7273H38.4886ZM39.4886 87H35.2386V89H39.4886V87ZM36.0612 87.4314L25.9362 72.7837L24.291 73.9209L34.416 88.5686L36.0612 87.4314ZM25.1136 72.3523H24.9432V74.3523H25.1136V72.3523ZM23.9432 73.3523V88H25.9432V73.3523H23.9432ZM24.9432 87H20.0227V89H24.9432V87ZM21.0227 88V64.7273H19.0227V88H21.0227ZM20.0227 65.7273H24.3409V63.7273H20.0227V65.7273ZM23.5164 65.2931L33.5619 79.9295L35.2109 78.7978L25.1654 64.1614L23.5164 65.2931ZM34.3864 80.3636H34.5909V78.3636H34.3864V80.3636ZM35.5909 79.3636V64.7273H33.5909V79.3636H35.5909ZM34.5909 65.7273H39.4886V63.7273H34.5909V65.7273Z" fill="#A4A6B1" mask="url(#path-1-outside-1_18_143)"/>
<path d="M29.5 0L59 72.131L29.5 50.5134L29.5 0Z" fill="#A4A6B1"/>
<path d="M29.5 3.05176e-05L1.90735e-06 72.131L29.5 50.5134L29.5 3.05176e-05Z" fill="#005F86"/>
</svg>
