<svg width="25" height="23" viewBox="0 0 25 23" fill="none" xmlns="http://www.w3.org/2000/svg">
<path d="M19.2117 19.5942L12.2117 13.1776L9.86167 15.3317C9.995 15.5609 10.0867 15.8054 10.1367 16.0651C10.1867 16.3248 10.2117 16.5845 10.2117 16.8442C10.2117 17.8526 9.82 18.7158 9.03667 19.4338C8.25334 20.1519 7.31167 20.5109 6.21167 20.5109C5.11167 20.5109 4.17 20.1519 3.38667 19.4338C2.60334 18.7158 2.21167 17.8526 2.21167 16.8442C2.21167 15.8359 2.60334 14.9727 3.38667 14.2547C4.17 13.5366 5.11167 13.1776 6.21167 13.1776C6.495 13.1776 6.77834 13.2005 7.06167 13.2463C7.345 13.2922 7.61167 13.3762 7.86167 13.4984L10.2117 11.3442L7.86167 9.19007C7.61167 9.3123 7.345 9.39632 7.06167 9.44216C6.77834 9.48799 6.495 9.51091 6.21167 9.51091C5.11167 9.51091 4.17 9.15188 3.38667 8.43382C2.60334 7.71577 2.21167 6.85257 2.21167 5.84424C2.21167 4.83591 2.60334 3.97271 3.38667 3.25466C4.17 2.5366 5.11167 2.17757 6.21167 2.17757C7.31167 2.17757 8.25334 2.5366 9.03667 3.25466C9.82 3.97271 10.2117 4.83591 10.2117 5.84424C10.2117 6.10396 10.1867 6.36369 10.1367 6.62341C10.0867 6.88313 9.995 7.12757 9.86167 7.35674L22.2117 18.6776V19.5942H19.2117ZM15.2117 10.4276L13.2117 8.59424L19.2117 3.09424H22.2117V4.01091L15.2117 10.4276ZM6.21167 7.67757C6.76167 7.67757 7.2325 7.49806 7.62417 7.13903C8.01584 6.78 8.21167 6.34841 8.21167 5.84424C8.21167 5.34007 8.01584 4.90848 7.62417 4.54945C7.2325 4.19042 6.76167 4.01091 6.21167 4.01091C5.66167 4.01091 5.19084 4.19042 4.79917 4.54945C4.4075 4.90848 4.21167 5.34007 4.21167 5.84424C4.21167 6.34841 4.4075 6.78 4.79917 7.13903C5.19084 7.49806 5.66167 7.67757 6.21167 7.67757ZM12.2117 11.8026C12.345 11.8026 12.4617 11.7567 12.5617 11.6651C12.6617 11.5734 12.7117 11.4665 12.7117 11.3442C12.7117 11.222 12.6617 11.1151 12.5617 11.0234C12.4617 10.9317 12.345 10.8859 12.2117 10.8859C12.0783 10.8859 11.9617 10.9317 11.8617 11.0234C11.7617 11.1151 11.7117 11.222 11.7117 11.3442C11.7117 11.4665 11.7617 11.5734 11.8617 11.6651C11.9617 11.7567 12.0783 11.8026 12.2117 11.8026ZM6.21167 18.6776C6.76167 18.6776 7.2325 18.4981 7.62417 18.139C8.01584 17.78 8.21167 17.3484 8.21167 16.8442C8.21167 16.3401 8.01584 15.9085 7.62417 15.5494C7.2325 15.1904 6.76167 15.0109 6.21167 15.0109C5.66167 15.0109 5.19084 15.1904 4.79917 15.5494C4.4075 15.9085 4.21167 16.3401 4.21167 16.8442C4.21167 17.3484 4.4075 17.78 4.79917 18.139C5.19084 18.4981 5.66167 18.6776 6.21167 18.6776Z" fill="white"/>
</svg>
