<svg width="15" height="14" viewBox="0 0 15 14" fill="none" xmlns="http://www.w3.org/2000/svg">
<g clip-path="url(#clip0_11_171)">
<path d="M3.75 5.25V1.16667H11.25V5.25M3.75 10.5H2.5C2.16848 10.5 1.85054 10.3771 1.61612 10.1583C1.3817 9.9395 1.25 9.64276 1.25 9.33334V6.41667C1.25 6.10725 1.3817 5.81051 1.61612 5.59171C1.85054 5.37292 2.16848 5.25 2.5 5.25H12.5C12.8315 5.25 13.1495 5.37292 13.3839 5.59171C13.6183 5.81051 13.75 6.10725 13.75 6.41667V9.33334C13.75 9.64276 13.6183 9.9395 13.3839 10.1583C13.1495 10.3771 12.8315 10.5 12.5 10.5H11.25M3.75 8.16667H11.25V12.8333H3.75V8.16667Z" stroke="white" stroke-linecap="round" stroke-linejoin="round"/>
</g>
<defs>
<clipPath id="clip0_11_171">
<rect width="15" height="14" fill="white"/>
</clipPath>
</defs>
</svg>
