<svg width="23" height="21" viewBox="0 0 23 21" fill="none" xmlns="http://www.w3.org/2000/svg">
<path d="M22.5 10.5C22.5 15.981 17.6189 20.5 11.5 20.5C5.38108 20.5 0.5 15.981 0.5 10.5C0.5 5.01899 5.38108 0.5 11.5 0.5C17.6189 0.5 22.5 5.01899 22.5 10.5Z" fill="#005F86" stroke="#A4A6B1"/>
<g clip-path="url(#clip0_11_175)">
<path d="M9.69601 10.5241L7.69373 8.20906M7.69373 8.20906L9.71417 5.9099M7.69373 8.20906L12.521 8.22806C12.9478 8.22974 13.3563 8.4258 13.6567 8.77312C13.9571 9.12044 14.1247 9.59056 14.1228 10.0801L14.1101 13.31" stroke="white" stroke-linecap="round" stroke-linejoin="round"/>
</g>
<defs>
<clipPath id="clip0_11_175">
<rect width="11.0741" height="9.65461" fill="white" transform="matrix(0.00393626 -0.999992 -0.999992 -0.00393626 15.7119 15.162)"/>
</clipPath>
</defs>
</svg>
