<svg width="22" height="20" viewBox="0 0 22 20" fill="none" xmlns="http://www.w3.org/2000/svg">
<path d="M21.5 10C21.5 15.2029 16.8449 19.5 11 19.5C5.1551 19.5 0.5 15.2029 0.5 10C0.5 4.79707 5.1551 0.5 11 0.5C16.8449 0.5 21.5 4.79707 21.5 10Z" fill="#005F86" stroke="#A4A6B1"/>
<path d="M5.54169 10.5C5.54169 10.5 7.70835 6.16666 11.5 6.16666C15.2917 6.16666 17.4584 10.5 17.4584 10.5C17.4584 10.5 15.2917 14.8333 11.5 14.8333C7.70835 14.8333 5.54169 10.5 5.54169 10.5Z" stroke="white" stroke-linecap="round" stroke-linejoin="round"/>
<path d="M11.5 12.125C12.3975 12.125 13.125 11.3975 13.125 10.5C13.125 9.60253 12.3975 8.87499 11.5 8.87499C10.6026 8.87499 9.87502 9.60253 9.87502 10.5C9.87502 11.3975 10.6026 12.125 11.5 12.125Z" stroke="white" stroke-linecap="round" stroke-linejoin="round"/>
</svg>
