<svg width="76" height="18" viewBox="0 0 76 18" fill="none" xmlns="http://www.w3.org/2000/svg">
<rect width="76" height="18" rx="6" fill="#005F86"/>
<path d="M12.6321 13V5.72727H14.1697V8.72798H17.2912V5.72727H18.8253V13H17.2912V9.99574H14.1697V13H12.6321ZM22.8307 5.72727V13H21.293V5.72727H22.8307ZM29.2411 7.81889C29.2127 7.53243 29.0908 7.3099 28.8753 7.15128C28.6599 6.99266 28.3675 6.91335 27.9982 6.91335C27.7472 6.91335 27.5354 6.94886 27.3625 7.01989C27.1897 7.08854 27.0571 7.18442 26.9648 7.30753C26.8748 7.43063 26.8299 7.57031 26.8299 7.72656C26.8251 7.85677 26.8524 7.97041 26.9115 8.06747C26.9731 8.16454 27.0571 8.24858 27.1637 8.3196C27.2702 8.38826 27.3933 8.44863 27.533 8.50071C27.6727 8.55043 27.8218 8.59304 27.9804 8.62855L28.6338 8.7848C28.9511 8.85582 29.2423 8.95052 29.5074 9.06889C29.7726 9.18726 30.0022 9.33286 30.1963 9.50568C30.3905 9.6785 30.5408 9.8821 30.6473 10.1165C30.7562 10.3509 30.8119 10.6196 30.8142 10.9226C30.8119 11.3677 30.6982 11.7536 30.4733 12.0803C30.2508 12.4046 29.9288 12.6567 29.5074 12.8366C29.0884 13.0142 28.5829 13.103 27.9911 13.103C27.404 13.103 26.8926 13.013 26.457 12.8331C26.0238 12.6532 25.6852 12.3868 25.4414 12.0341C25.1999 11.679 25.0732 11.2398 25.0614 10.7166H26.5493C26.5659 10.9605 26.6357 11.1641 26.7588 11.3274C26.8843 11.4884 27.0512 11.6103 27.2596 11.6932C27.4703 11.7737 27.7082 11.8139 27.9733 11.8139C28.2337 11.8139 28.4598 11.776 28.6516 11.7003C28.8457 11.6245 28.9961 11.5192 29.1026 11.3842C29.2091 11.2493 29.2624 11.0942 29.2624 10.919C29.2624 10.7557 29.2139 10.6184 29.1168 10.5071C29.0221 10.3958 28.8824 10.3011 28.6978 10.223C28.5155 10.1449 28.2917 10.0739 28.0266 10.0099L27.2347 9.81108C26.6215 9.66193 26.1374 9.42874 25.7823 9.11151C25.4272 8.79427 25.2508 8.36695 25.2532 7.82955C25.2508 7.3892 25.368 7.0045 25.6047 6.67543C25.8438 6.34635 26.1717 6.08949 26.5884 5.90483C27.0051 5.72017 27.4785 5.62784 28.0088 5.62784C28.5486 5.62784 29.0197 5.72017 29.4222 5.90483C29.827 6.08949 30.1419 6.34635 30.3668 6.67543C30.5917 7.0045 30.7077 7.38565 30.7148 7.81889H29.2411ZM32.7715 6.99503V5.72727H38.7445V6.99503H36.518V13H34.9981V6.99503H32.7715ZM47.2794 9.36364C47.2794 10.1567 47.1291 10.8314 46.8284 11.3878C46.5301 11.9441 46.1229 12.3691 45.6068 12.6626C45.0931 12.9538 44.5154 13.0994 43.8739 13.0994C43.2276 13.0994 42.6475 12.9527 42.1338 12.6591C41.6201 12.3655 41.2141 11.9406 40.9158 11.3842C40.6175 10.8279 40.4683 10.1544 40.4683 9.36364C40.4683 8.57055 40.6175 7.89583 40.9158 7.33949C41.2141 6.78314 41.6201 6.35937 42.1338 6.06818C42.6475 5.77462 43.2276 5.62784 43.8739 5.62784C44.5154 5.62784 45.0931 5.77462 45.6068 6.06818C46.1229 6.35937 46.5301 6.78314 46.8284 7.33949C47.1291 7.89583 47.2794 8.57055 47.2794 9.36364ZM45.7205 9.36364C45.7205 8.84991 45.6435 8.41667 45.4896 8.06392C45.3381 7.71117 45.1239 7.44366 44.8469 7.26136C44.5699 7.07907 44.2455 6.98793 43.8739 6.98793C43.5022 6.98793 43.1778 7.07907 42.9009 7.26136C42.6239 7.44366 42.4084 7.71117 42.2545 8.06392C42.103 8.41667 42.0273 8.84991 42.0273 9.36364C42.0273 9.87737 42.103 10.3106 42.2545 10.6634C42.4084 11.0161 42.6239 11.2836 42.9009 11.4659C43.1778 11.6482 43.5022 11.7393 43.8739 11.7393C44.2455 11.7393 44.5699 11.6482 44.8469 11.4659C45.1239 11.2836 45.3381 11.0161 45.4896 10.6634C45.6435 10.3106 45.7205 9.87737 45.7205 9.36364ZM49.6184 13V5.72727H52.4877C53.037 5.72727 53.5057 5.82552 53.894 6.02202C54.2846 6.21615 54.5817 6.49195 54.7853 6.84943C54.9913 7.20455 55.0943 7.6224 55.0943 8.10298C55.0943 8.58594 54.9901 9.00142 54.7818 9.34943C54.5734 9.69508 54.2716 9.96023 53.8762 10.1449C53.4833 10.3295 53.0074 10.4219 52.4487 10.4219H50.5275V9.18608H52.2001C52.4937 9.18608 52.7375 9.14583 52.9316 9.06534C53.1258 8.98485 53.2702 8.86411 53.3649 8.70312C53.4619 8.54214 53.5105 8.34209 53.5105 8.10298C53.5105 7.86151 53.4619 7.65791 53.3649 7.49219C53.2702 7.32647 53.1246 7.20099 52.9281 7.11577C52.734 7.02817 52.4889 6.98438 52.193 6.98438H51.1561V13H49.6184ZM53.546 9.69034L55.3535 13H53.6561L51.8876 9.69034H53.546ZM56.6521 5.72727H58.3744L60.0327 8.85938H60.1038L61.7621 5.72727H63.4844L60.8317 10.429V13H59.3048V10.429L56.6521 5.72727Z" fill="white"/>
</svg>
