<svg width="76" height="18" viewBox="0 0 76 18" fill="none" xmlns="http://www.w3.org/2000/svg">
<rect width="76" height="18" rx="6" fill="#005F86"/>
<path d="M15.6321 13V5.72727H17.1697V11.7322H20.2876V13H15.6321ZM23.945 13H22.2973L24.808 5.72727H26.7895L29.2966 13H27.6489L25.8271 7.3892H25.7703L23.945 13ZM23.842 10.1413H27.7341V11.3416H23.842V10.1413ZM30.2036 5.72727H31.9259L33.5843 8.85938H33.6553L35.3137 5.72727H37.036L34.3833 10.429V13H32.8563V10.429L30.2036 5.72727ZM39.0759 13V5.72727H43.9764V6.99503H40.6135V8.72798H43.7243V9.99574H40.6135V11.7322H43.9906V13H39.0759ZM46.3989 13V5.72727H49.2682C49.8175 5.72727 50.2862 5.82552 50.6745 6.02202C51.0651 6.21615 51.3622 6.49195 51.5658 6.84943C51.7718 7.20455 51.8748 7.6224 51.8748 8.10298C51.8748 8.58594 51.7706 9.00142 51.5623 9.34943C51.3539 9.69508 51.0521 9.96023 50.6567 10.1449C50.2637 10.3295 49.7879 10.4219 49.2292 10.4219H47.308V9.18608H48.9806C49.2741 9.18608 49.518 9.14583 49.7121 9.06534C49.9062 8.98485 50.0507 8.86411 50.1453 8.70312C50.2424 8.54214 50.2909 8.34209 50.2909 8.10298C50.2909 7.86151 50.2424 7.65791 50.1453 7.49219C50.0507 7.32647 49.9051 7.20099 49.7086 7.11577C49.5144 7.02817 49.2694 6.98438 48.9735 6.98438H47.9365V13H46.3989ZM50.3265 9.69034L52.134 13H50.4365L48.6681 9.69034H50.3265ZM58.1067 7.81889C58.0783 7.53243 57.9564 7.3099 57.7409 7.15128C57.5255 6.99266 57.2331 6.91335 56.8638 6.91335C56.6129 6.91335 56.401 6.94886 56.2282 7.01989C56.0553 7.08854 55.9228 7.18442 55.8304 7.30753C55.7405 7.43063 55.6955 7.57031 55.6955 7.72656C55.6908 7.85677 55.718 7.97041 55.7772 8.06747C55.8387 8.16454 55.9228 8.24858 56.0293 8.3196C56.1358 8.38826 56.2589 8.44863 56.3986 8.50071C56.5383 8.55043 56.6874 8.59304 56.8461 8.62855L57.4995 8.7848C57.8167 8.85582 58.1079 8.95052 58.373 9.06889C58.6382 9.18726 58.8678 9.33286 59.062 9.50568C59.2561 9.6785 59.4064 9.8821 59.513 10.1165C59.6219 10.3509 59.6775 10.6196 59.6799 10.9226C59.6775 11.3677 59.5639 11.7536 59.339 12.0803C59.1164 12.4046 58.7944 12.6567 58.373 12.8366C57.954 13.0142 57.4486 13.103 56.8567 13.103C56.2696 13.103 55.7582 13.013 55.3226 12.8331C54.8894 12.6532 54.5508 12.3868 54.307 12.0341C54.0655 11.679 53.9389 11.2398 53.927 10.7166H55.415C55.4315 10.9605 55.5014 11.1641 55.6245 11.3274C55.7499 11.4884 55.9168 11.6103 56.1252 11.6932C56.3359 11.7737 56.5738 11.8139 56.839 11.8139C57.0994 11.8139 57.3255 11.776 57.5172 11.7003C57.7114 11.6245 57.8617 11.5192 57.9682 11.3842C58.0748 11.2493 58.128 11.0942 58.128 10.919C58.128 10.7557 58.0795 10.6184 57.9824 10.5071C57.8877 10.3958 57.748 10.3011 57.5634 10.223C57.3811 10.1449 57.1574 10.0739 56.8922 10.0099L56.1003 9.81108C55.4872 9.66193 55.003 9.42874 54.6479 9.11151C54.2928 8.79427 54.1164 8.36695 54.1188 7.82955C54.1164 7.3892 54.2336 7.0045 54.4703 6.67543C54.7095 6.34635 55.0373 6.08949 55.454 5.90483C55.8707 5.72017 56.3442 5.62784 56.8745 5.62784C57.4142 5.62784 57.8854 5.72017 58.2878 5.90483C58.6926 6.08949 59.0075 6.34635 59.2324 6.67543C59.4573 7.0045 59.5733 7.38565 59.5804 7.81889H58.1067Z" fill="white"/>
</svg>
