<svg width="23" height="21" viewBox="0 0 23 21" fill="none" xmlns="http://www.w3.org/2000/svg">
<path d="M22.5 10.5C22.5 15.981 17.6189 20.5 11.5 20.5C5.38108 20.5 0.5 15.981 0.5 10.5C0.5 5.01899 5.38108 0.5 11.5 0.5C17.6189 0.5 22.5 5.01899 22.5 10.5Z" fill="#005F86" stroke="#A4A6B1"/>
<ellipse cx="10.881" cy="4.47727" rx="1.54762" ry="1.47727" fill="white"/>
<ellipse cx="14.5952" cy="5.6591" rx="1.54762" ry="1.47727" fill="white"/>
<ellipse cx="16.4524" cy="8.61364" rx="1.54762" ry="1.47727" fill="white"/>
<ellipse cx="15.8334" cy="12.1591" rx="1.54762" ry="1.47727" fill="white"/>
<ellipse cx="13.3572" cy="14.5227" rx="1.54762" ry="1.47727" fill="white"/>
<ellipse cx="9.64283" cy="14.5227" rx="1.54762" ry="1.47727" fill="white"/>
<ellipse cx="7.16664" cy="12.1591" rx="1.54762" ry="1.47727" fill="white"/>
<ellipse cx="6.54762" cy="9.20455" rx="1.54762" ry="1.47727" fill="white"/>
</svg>
