<svg width="22" height="20" viewBox="0 0 22 20" fill="none" xmlns="http://www.w3.org/2000/svg">
<path d="M21.5 10C21.5 15.2029 16.8449 19.5 11 19.5C5.1551 19.5 0.5 15.2029 0.5 10C0.5 4.79707 5.1551 0.5 11 0.5C16.8449 0.5 21.5 4.79707 21.5 10Z" fill="#005F86" stroke="#A4A6B1"/>
<path d="M5.8667 14.0657V12.904H7.2286V8.83839C7.2286 8.03494 7.51233 7.32345 8.07979 6.70392C8.64726 6.07471 9.38495 5.6633 10.2929 5.4697V5.06314C10.2929 4.82113 10.3894 4.61785 10.5823 4.45329C10.7866 4.27905 11.0306 4.19193 11.3143 4.19193C11.598 4.19193 11.8364 4.27905 12.0293 4.45329C12.2336 4.61785 12.3357 4.82113 12.3357 5.06314V5.4697C13.2437 5.6633 13.9814 6.07471 14.5488 6.70392C15.1163 7.32345 15.4 8.03494 15.4 8.83839V12.904H16.7619V14.0657H5.8667ZM11.3143 15.8081C10.9398 15.8081 10.6163 15.6968 10.344 15.4741C10.0829 15.2418 9.95241 14.9659 9.95241 14.6465H12.6762C12.6762 14.9659 12.54 15.2418 12.2677 15.4741C12.0066 15.6968 11.6888 15.8081 11.3143 15.8081ZM8.59051 12.904H14.0381V8.83839C14.0381 8.1995 13.7714 7.65257 13.238 7.19761C12.7046 6.74264 12.0634 6.51516 11.3143 6.51516C10.5653 6.51516 9.92404 6.74264 9.39063 7.19761C8.85722 7.65257 8.59051 8.1995 8.59051 8.83839V12.904Z" fill="white"/>
</svg>
