<svg width="23" height="21" viewBox="0 0 23 21" fill="none" xmlns="http://www.w3.org/2000/svg">
<path d="M22.5 10.5C22.5 15.981 17.6189 20.5 11.5 20.5C5.38108 20.5 0.5 15.981 0.5 10.5C0.5 5.01899 5.38108 0.5 11.5 0.5C17.6189 0.5 22.5 5.01899 22.5 10.5Z" fill="#005F86" stroke="#A4A6B1"/>
<g clip-path="url(#clip0_11_169)">
<path d="M7.75 8.25V4.16667H15.25V8.25M7.75 13.5H6.5C6.16848 13.5 5.85054 13.3771 5.61612 13.1583C5.3817 12.9395 5.25 12.6428 5.25 12.3333V9.41667C5.25 9.10725 5.3817 8.81051 5.61612 8.59171C5.85054 8.37292 6.16848 8.25 6.5 8.25H16.5C16.8315 8.25 17.1495 8.37292 17.3839 8.59171C17.6183 8.81051 17.75 9.10725 17.75 9.41667V12.3333C17.75 12.6428 17.6183 12.9395 17.3839 13.1583C17.1495 13.3771 16.8315 13.5 16.5 13.5H15.25M7.75 11.1667H15.25V15.8333H7.75V11.1667Z" stroke="white" stroke-linecap="round" stroke-linejoin="round"/>
</g>
<defs>
<clipPath id="clip0_11_169">
<rect width="15" height="14" fill="white" transform="translate(4 3)"/>
</clipPath>
</defs>
</svg>
