<svg width="22" height="20" viewBox="0 0 22 20" fill="none" xmlns="http://www.w3.org/2000/svg">
<path d="M21.5 10C21.5 15.2029 16.8449 19.5 11 19.5C5.1551 19.5 0.5 15.2029 0.5 10C0.5 4.79707 5.1551 0.5 11 0.5C16.8449 0.5 21.5 4.79707 21.5 10Z" fill="#005F86" stroke="#A4A6B1"/>
<path d="M9.39578 15.8333L9.16245 13.9667C9.03606 13.918 8.91696 13.8597 8.80516 13.7917C8.69335 13.7236 8.58398 13.6507 8.47703 13.5729L6.74162 14.3021L5.13745 11.5312L6.63953 10.3937C6.62981 10.3257 6.62495 10.2601 6.62495 10.1969V9.80311C6.62495 9.73992 6.62981 9.67429 6.63953 9.60624L5.13745 8.46874L6.74162 5.69791L8.47703 6.42707C8.58398 6.3493 8.69578 6.27638 8.81245 6.20832C8.92912 6.14027 9.04578 6.08193 9.16245 6.03332L9.39578 4.16666H12.6041L12.8375 6.03332C12.9638 6.08193 13.0829 6.14027 13.1947 6.20832C13.3065 6.27638 13.4159 6.3493 13.5229 6.42707L15.2583 5.69791L16.8625 8.46874L15.3604 9.60624C15.3701 9.67429 15.375 9.73992 15.375 9.80311V10.1969C15.375 10.2601 15.3652 10.3257 15.3458 10.3937L16.8479 11.5312L15.2437 14.3021L13.5229 13.5729C13.4159 13.6507 13.3041 13.7236 13.1875 13.7917C13.0708 13.8597 12.9541 13.918 12.8375 13.9667L12.6041 15.8333H9.39578ZM10.4166 14.6667H11.5687L11.7729 13.1208C12.0743 13.043 12.3538 12.9288 12.6114 12.7781C12.869 12.6274 13.1048 12.4451 13.3187 12.2312L14.7625 12.8292L15.3312 11.8375L14.077 10.8896C14.1256 10.7535 14.1597 10.6101 14.1791 10.4594C14.1986 10.3087 14.2083 10.1555 14.2083 9.99999C14.2083 9.84443 14.1986 9.69131 14.1791 9.54062C14.1597 9.38992 14.1256 9.24652 14.077 9.11041L15.3312 8.16249L14.7625 7.17082L13.3187 7.78332C13.1048 7.55971 12.869 7.37256 12.6114 7.22186C12.3538 7.07117 12.0743 6.95693 11.7729 6.87916L11.5833 5.33332H10.4312L10.227 6.87916C9.92565 6.95693 9.64613 7.07117 9.38849 7.22186C9.13085 7.37256 8.89509 7.55485 8.6812 7.76874L7.23745 7.17082L6.6687 8.16249L7.92287 9.09582C7.87426 9.24166 7.84023 9.38749 7.82078 9.53332C7.80134 9.67916 7.79162 9.83471 7.79162 9.99999C7.79162 10.1555 7.80134 10.3062 7.82078 10.4521C7.84023 10.5979 7.87426 10.7437 7.92287 10.8896L6.6687 11.8375L7.23745 12.8292L8.6812 12.2167C8.89509 12.4403 9.13085 12.6274 9.38849 12.7781C9.64613 12.9288 9.92565 13.043 10.227 13.1208L10.4166 14.6667ZM11.0291 12.0417C11.593 12.0417 12.0743 11.8424 12.4729 11.4437C12.8715 11.0451 13.0708 10.5639 13.0708 9.99999C13.0708 9.4361 12.8715 8.95485 12.4729 8.55624C12.0743 8.15763 11.593 7.95832 11.0291 7.95832C10.4555 7.95832 9.97183 8.15763 9.57808 8.55624C9.18433 8.95485 8.98745 9.4361 8.98745 9.99999C8.98745 10.5639 9.18433 11.0451 9.57808 11.4437C9.97183 11.8424 10.4555 12.0417 11.0291 12.0417Z" fill="white"/>
</svg>
