<svg width="76" height="18" viewBox="0 0 76 18" fill="none" xmlns="http://www.w3.org/2000/svg">
<rect width="76" height="18" rx="6" fill="#005F86"/>
<path d="M9.36957 6.99503V5.72727H15.3426V6.99503H13.116V13H11.5961V6.99503H9.36957ZM17.5262 13V5.72727H20.3956C20.9448 5.72727 21.4136 5.82552 21.8018 6.02202C22.1924 6.21615 22.4895 6.49195 22.6931 6.84943C22.8991 7.20455 23.0021 7.6224 23.0021 8.10298C23.0021 8.58594 22.8979 9.00142 22.6896 9.34943C22.4813 9.69508 22.1794 9.96023 21.7841 10.1449C21.3911 10.3295 20.9152 10.4219 20.3565 10.4219H18.4353V9.18608H20.1079C20.4015 9.18608 20.6453 9.14583 20.8395 9.06534C21.0336 8.98485 21.178 8.86411 21.2727 8.70312C21.3698 8.54214 21.4183 8.34209 21.4183 8.10298C21.4183 7.86151 21.3698 7.65791 21.2727 7.49219C21.178 7.32647 21.0324 7.20099 20.8359 7.11577C20.6418 7.02817 20.3967 6.98438 20.1008 6.98438H19.0639V13H17.5262ZM21.4538 9.69034L23.2613 13H21.5639L19.7954 9.69034H21.4538ZM26.5423 13H24.8946L27.4052 5.72727H29.3868L31.8939 13H30.2461L28.4244 7.3892H28.3676L26.5423 13ZM26.4393 10.1413H30.3314V11.3416H26.4393V10.1413ZM40.0443 8.27344H38.4889C38.4605 8.07221 38.4025 7.89347 38.3149 7.73722C38.2273 7.5786 38.1149 7.44366 37.9776 7.33239C37.8402 7.22112 37.6816 7.13589 37.5017 7.0767C37.3241 7.01752 37.1312 6.98793 36.9229 6.98793C36.5464 6.98793 36.2186 7.08144 35.9392 7.26847C35.6598 7.45312 35.4432 7.72301 35.2893 8.07812C35.1355 8.43087 35.0585 8.85937 35.0585 9.36364C35.0585 9.8821 35.1355 10.3177 35.2893 10.6705C35.4456 11.0232 35.6634 11.2895 35.9428 11.4695C36.2221 11.6494 36.5453 11.7393 36.9122 11.7393C37.1182 11.7393 37.3088 11.7121 37.4839 11.6577C37.6615 11.6032 37.8189 11.5239 37.9562 11.4197C38.0936 11.3132 38.2072 11.1842 38.2972 11.0327C38.3895 10.8812 38.4534 10.7083 38.4889 10.5142L40.0443 10.5213C40.0041 10.8551 39.9035 11.1771 39.7425 11.4872C39.5839 11.795 39.3696 12.0708 39.0997 12.3146C38.8322 12.5561 38.5126 12.7479 38.1409 12.8899C37.7716 13.0296 37.3537 13.0994 36.8874 13.0994C36.2387 13.0994 35.6587 12.9527 35.1473 12.6591C34.6383 12.3655 34.2358 11.9406 33.9399 11.3842C33.6464 10.8279 33.4996 10.1544 33.4996 9.36364C33.4996 8.57055 33.6487 7.89583 33.947 7.33949C34.2453 6.78314 34.6501 6.35937 35.1615 6.06818C35.6729 5.77462 36.2482 5.62784 36.8874 5.62784C37.3088 5.62784 37.6994 5.68703 38.0592 5.8054C38.4214 5.92377 38.7422 6.09659 39.0216 6.32386C39.3009 6.54877 39.5282 6.82457 39.7034 7.15128C39.881 7.47798 39.9946 7.85204 40.0443 8.27344ZM42.3469 13V5.72727H43.8846V8.93395H43.9805L46.5977 5.72727H48.4407L45.7418 8.98366L48.4727 13H46.6332L44.641 10.0099L43.8846 10.9332V13H42.3469ZM51.9791 5.72727V13H50.4415V5.72727H51.9791ZM60.5273 5.72727V13H59.1992L56.0351 8.42259H55.9819V13H54.4442V5.72727H55.7936L58.9328 10.3011H58.9968V5.72727H60.5273ZM67.8202 8.07812C67.7705 7.9053 67.7006 7.7526 67.6107 7.62003C67.5207 7.48509 67.4106 7.37145 67.2804 7.27912C67.1526 7.18442 67.0058 7.11222 66.8401 7.0625C66.6767 7.01278 66.4956 6.98793 66.2967 6.98793C65.925 6.98793 65.5983 7.08026 65.3166 7.26491C65.0373 7.44957 64.8195 7.71828 64.6632 8.07102C64.507 8.4214 64.4288 8.84991 64.4288 9.35653C64.4288 9.86316 64.5058 10.294 64.6597 10.6491C64.8135 11.0043 65.0313 11.2753 65.3131 11.4624C65.5948 11.647 65.9274 11.7393 66.3109 11.7393C66.6589 11.7393 66.9561 11.6778 67.2023 11.5547C67.4509 11.4292 67.6402 11.2528 67.7705 11.0256C67.903 10.7983 67.9693 10.5296 67.9693 10.2195L68.2818 10.2656H66.4068V9.10795H69.4501V10.0241C69.4501 10.6634 69.3152 11.2126 69.0453 11.6719C68.7754 12.1288 68.4037 12.4815 67.9303 12.7301C67.4568 12.9763 66.9146 13.0994 66.3038 13.0994C65.622 13.0994 65.0231 12.9491 64.507 12.6484C63.9909 12.3454 63.5884 11.9157 63.2996 11.3594C63.0131 10.8007 62.8699 10.1378 62.8699 9.37074C62.8699 8.78125 62.9551 8.25568 63.1256 7.79403C63.2984 7.33002 63.5399 6.93703 63.85 6.61506C64.1601 6.29309 64.5212 6.04806 64.9331 5.87997C65.345 5.71188 65.7913 5.62784 66.2719 5.62784C66.6838 5.62784 67.0673 5.68821 67.4224 5.80895C67.7776 5.92732 68.0924 6.09541 68.367 6.31321C68.644 6.53101 68.8701 6.79025 69.0453 7.09091C69.2205 7.3892 69.333 7.71828 69.3827 8.07812H67.8202Z" fill="white"/>
</svg>
