<svg width="17" height="17" viewBox="0 0 17 17" fill="none" xmlns="http://www.w3.org/2000/svg">
<path d="M8.5 15.5833C8.33472 15.5833 8.19306 15.5361 8.075 15.4417C7.95695 15.3472 7.8684 15.2233 7.80938 15.0698C7.58507 14.4087 7.30174 13.7889 6.95938 13.2104C6.62882 12.6319 6.1625 11.9531 5.56042 11.1739C4.95833 10.3948 4.4684 9.65103 4.09063 8.9427C3.72465 8.23436 3.54167 7.37846 3.54167 6.37499C3.54167 4.99374 4.01979 3.82499 4.97604 2.86874C5.9441 1.90068 7.11875 1.41666 8.5 1.41666C9.88125 1.41666 11.05 1.90068 12.0063 2.86874C12.9743 3.82499 13.4583 4.99374 13.4583 6.37499C13.4583 7.4493 13.2517 8.34652 12.8385 9.06666C12.4372 9.77499 11.9708 10.4774 11.4396 11.1739C10.8021 12.0239 10.3181 12.7323 9.9875 13.2989C9.66875 13.8538 9.40313 14.4441 9.19063 15.0698C9.1316 15.2351 9.03715 15.3649 8.90729 15.4594C8.78924 15.542 8.65347 15.5833 8.5 15.5833ZM8.5 8.14582C8.99583 8.14582 9.41493 7.97464 9.75729 7.63228C10.0997 7.28992 10.2708 6.87082 10.2708 6.37499C10.2708 5.87916 10.0997 5.46006 9.75729 5.1177C9.41493 4.77534 8.99583 4.60416 8.5 4.60416C8.00417 4.60416 7.58507 4.77534 7.24271 5.1177C6.90035 5.46006 6.72917 5.87916 6.72917 6.37499C6.72917 6.87082 6.90035 7.28992 7.24271 7.63228C7.58507 7.97464 8.00417 8.14582 8.5 8.14582Z" fill="#1D1B20"/>
</svg>
