<svg width="26" height="24" viewBox="0 0 26 24" fill="none" xmlns="http://www.w3.org/2000/svg">
<mask id="path-1-inside-1_68_65" fill="white">
<path d="M7.48896 20.6877C6.90054 20.6877 6.39682 20.5 5.97779 20.1247C5.55877 19.7493 5.34926 19.2981 5.34926 18.771V6.31268H4.2794V4.39602H9.62866V3.43768H16.0478V4.39602H21.397V6.31268H20.3272V18.771C20.3272 19.2981 20.1177 19.7493 19.6986 20.1247C19.2796 20.5 18.7759 20.6877 18.1875 20.6877H7.48896ZM18.1875 6.31268H7.48896V18.771H18.1875V6.31268ZM9.62866 16.8543H11.7684V8.22935H9.62866V16.8543ZM13.9081 16.8543H16.0478V8.22935H13.9081V16.8543Z"/>
</mask>
<path d="M5.34926 6.31268H8.34926V3.31268H5.34926V6.31268ZM4.2794 6.31268H1.2794V9.31268H4.2794V6.31268ZM4.2794 4.39602V1.39602H1.2794V4.39602H4.2794ZM9.62866 4.39602V7.39602H12.6287V4.39602H9.62866ZM9.62866 3.43768V0.437683H6.62866V3.43768H9.62866ZM16.0478 3.43768H19.0478V0.437683H16.0478V3.43768ZM16.0478 4.39602H13.0478V7.39602H16.0478V4.39602ZM21.397 4.39602H24.397V1.39602H21.397V4.39602ZM21.397 6.31268V9.31268H24.397V6.31268H21.397ZM20.3272 6.31268V3.31268H17.3272V6.31268H20.3272ZM18.1875 6.31268H21.1875V3.31268H18.1875V6.31268ZM7.48896 6.31268V3.31268H4.48896V6.31268H7.48896ZM7.48896 18.771H4.48896V21.771H7.48896V18.771ZM18.1875 18.771V21.771H21.1875V18.771H18.1875ZM9.62866 16.8543H6.62866V19.8543H9.62866V16.8543ZM11.7684 16.8543V19.8543H14.7684V16.8543H11.7684ZM11.7684 8.22935H14.7684V5.22935H11.7684V8.22935ZM9.62866 8.22935V5.22935H6.62866V8.22935H9.62866ZM13.9081 16.8543H10.9081V19.8543H13.9081V16.8543ZM16.0478 16.8543V19.8543H19.0478V16.8543H16.0478ZM16.0478 8.22935H19.0478V5.22935H16.0478V8.22935ZM13.9081 8.22935V5.22935H10.9081V8.22935H13.9081ZM7.48896 17.6877C7.5185 17.6877 7.6037 17.6934 7.71724 17.7357C7.83292 17.7788 7.92288 17.8394 7.97945 17.8901L3.97614 22.3592C4.97249 23.2517 6.19905 23.6877 7.48896 23.6877V17.6877ZM7.97945 17.8901C8.03354 17.9385 8.13967 18.0524 8.22737 18.2413C8.31726 18.4349 8.34926 18.6246 8.34926 18.771H2.34926C2.34926 20.2137 2.97004 21.458 3.97614 22.3592L7.97945 17.8901ZM8.34926 18.771V6.31268H2.34926V18.771H8.34926ZM5.34926 3.31268H4.2794V9.31268H5.34926V3.31268ZM7.2794 6.31268V4.39602H1.2794V6.31268H7.2794ZM4.2794 7.39602H9.62866V1.39602H4.2794V7.39602ZM12.6287 4.39602V3.43768H6.62866V4.39602H12.6287ZM9.62866 6.43768H16.0478V0.437683H9.62866V6.43768ZM13.0478 3.43768V4.39602H19.0478V3.43768H13.0478ZM16.0478 7.39602H21.397V1.39602H16.0478V7.39602ZM18.397 4.39602V6.31268H24.397V4.39602H18.397ZM21.397 3.31268H20.3272V9.31268H21.397V3.31268ZM17.3272 6.31268V18.771H23.3272V6.31268H17.3272ZM17.3272 18.771C17.3272 18.6246 17.3592 18.4349 17.4491 18.2413C17.5368 18.0524 17.6429 17.9385 17.697 17.8901L21.7003 22.3592C22.7064 21.458 23.3272 20.2137 23.3272 18.771H17.3272ZM17.697 17.8901C17.7536 17.8394 17.8435 17.7788 17.9592 17.7357C18.0727 17.6934 18.1579 17.6877 18.1875 17.6877V23.6877C19.4774 23.6877 20.7039 23.2517 21.7003 22.3592L17.697 17.8901ZM18.1875 17.6877H7.48896V23.6877H18.1875V17.6877ZM18.1875 3.31268H7.48896V9.31268H18.1875V3.31268ZM4.48896 6.31268V18.771H10.489V6.31268H4.48896ZM7.48896 21.771H18.1875V15.771H7.48896V21.771ZM21.1875 18.771V6.31268H15.1875V18.771H21.1875ZM9.62866 19.8543H11.7684V13.8543H9.62866V19.8543ZM14.7684 16.8543V8.22935H8.76837V16.8543H14.7684ZM11.7684 5.22935H9.62866V11.2293H11.7684V5.22935ZM6.62866 8.22935V16.8543H12.6287V8.22935H6.62866ZM13.9081 19.8543H16.0478V13.8543H13.9081V19.8543ZM19.0478 16.8543V8.22935H13.0478V16.8543H19.0478ZM16.0478 5.22935H13.9081V11.2293H16.0478V5.22935ZM10.9081 8.22935V16.8543H16.9081V8.22935H10.9081Z" fill="white" mask="url(#path-1-inside-1_68_65)"/>
</svg>
