<svg width="19" height="16" viewBox="0 0 17 14" fill="none" xmlns="http://www.w3.org/2000/svg">
<path d="M2.8667 11.0657V9.90405H4.2286V5.83839C4.2286 5.03494 4.51233 4.32345 5.07979 3.70392C5.64726 3.07471 6.38495 2.6633 7.29289 2.4697V2.06314C7.29289 1.82113 7.38936 1.61785 7.5823 1.45329C7.78658 1.27905 8.03059 1.19193 8.31432 1.19193C8.59805 1.19193 8.83638 1.27905 9.02932 1.45329C9.2336 1.61785 9.33575 1.82113 9.33575 2.06314V2.4697C10.2437 2.6633 10.9814 3.07471 11.5488 3.70392C12.1163 4.32345 12.4 5.03494 12.4 5.83839V9.90405H13.7619V11.0657H2.8667ZM8.31432 12.8081C7.9398 12.8081 7.61634 12.6968 7.34396 12.4741C7.08293 12.2418 6.95241 11.9659 6.95241 11.6465H9.67622C9.67622 11.9659 9.54003 12.2418 9.26765 12.4741C9.00662 12.6968 8.68884 12.8081 8.31432 12.8081ZM5.59051 9.90405H11.0381V5.83839C11.0381 5.1995 10.7714 4.65257 10.238 4.19761C9.7046 3.74264 9.06337 3.51516 8.31432 3.51516C7.56527 3.51516 6.92404 3.74264 6.39063 4.19761C5.85722 4.65257 5.59051 5.1995 5.59051 5.83839V9.90405Z" fill="white"/>
</svg>
