<svg width="23" height="19" viewBox="0 0 23 19" xmlns="http://www.w3.org/2000/svg">
  <rect width="23" height="19" fill="#005F86"/>
  <path d="M18.7833 16.625L12.7458 11.6375C12.2667 11.9542 11.7156 12.2049 11.0927 12.3896C10.4698 12.5743 9.80694 12.6667 9.10417 12.6667C7.36319 12.6667 5.88976 12.1686 4.68385 11.1724C3.47795 10.1762 2.875 8.95903 2.875 7.52083C2.875 6.08264 3.47795 4.86545 4.68385 3.86927C5.88976 2.87309 7.36319 2.375 9.10417 2.375C10.8451 2.375 12.3186 2.87309 13.5245 3.86927C14.7304 4.86545 15.3333 6.08264 15.3333 7.52083C15.3333 8.10139 15.2215 8.64896 14.9979 9.16354C14.7743 9.67812 14.4708 10.1333 14.0875 10.5292L20.125 15.5167L18.7833 16.625ZM9.10417 11.0833C10.3021 11.0833 11.3203 10.737 12.1589 10.0443C12.9974 9.35156 13.4167 8.51042 13.4167 7.52083C13.4167 6.53125 12.9974 5.6901 12.1589 4.9974C11.3203 4.30469 10.3021 3.95833 9.10417 3.95833C7.90625 3.95833 6.88802 4.30469 6.04948 4.9974C5.21094 5.6901 4.79167 6.53125 4.79167 7.52083C4.79167 8.51042 5.21094 9.35156 6.04948 10.0443C6.88802 10.737 7.90625 11.0833 9.10417 11.0833Z" fill="white"/>
</svg>
