<svg width="78" height="59" viewBox="0 0 78 59" fill="none" xmlns="http://www.w3.org/2000/svg">
<path d="M48.3848 40.131V21.8897H59.9746V40.131M36.7949 16.4172L54.1797 3.64828L71.5645 16.4172V36.4828C71.5645 37.4503 71.1574 38.3783 70.4329 39.0625C69.7084 39.7467 68.7258 40.131 67.7012 40.131H40.6582C39.6336 40.131 38.651 39.7467 37.9265 39.0625C37.2019 38.3783 36.7949 37.4503 36.7949 36.4828V16.4172Z" stroke="white" stroke-width="4" stroke-linecap="round" stroke-linejoin="round"/>
<path d="M17.3848 55.131V36.8897H28.9746V55.131M5.79492 31.4172L23.1797 18.6483L40.5645 31.4172V51.4828C40.5645 52.4503 40.1574 53.3783 39.4329 54.0625C38.7084 54.7467 37.7258 55.131 36.7012 55.131H9.6582C8.6336 55.131 7.65096 54.7467 6.92645 54.0625C6.20194 53.3783 5.79492 52.4503 5.79492 51.4828V31.4172Z" stroke="white" stroke-width="4" stroke-linecap="round" stroke-linejoin="round"/>
</svg>
