<svg width="65" height="54" viewBox="0 0 65 54" fill="none" xmlns="http://www.w3.org/2000/svg">
<path d="M2 34.5C2 17.4055 31 16.6622 31 34.5" stroke="white" stroke-width="3"/>
<path d="M15.6471 7.74322L11.3214 22.1409" stroke="white" stroke-width="3"/>
<path d="M20.3757 21.5883L15.647 7.28719" stroke="white" stroke-width="3"/>
<path d="M43.5 21L42 22.5L41 21L38.5 19.5L36 18H32.5V19.5V22.5L36 23.5L38.5 24.5L37.5 26.5L36 29L32.5 32.5L29.5 35.5L25 37L37.5 51.5L40 49.5L43.5 46L45.5 42.5V37H47H53H60.5L63 35.5V32.5L60.5 31L58 29L55 26.5L52 22.5L48 21H43.5ZM43.5 21L42 18L40 14.5M43.5 21L45.5 16L48 9.5M40 14.5L37.5 12.5L36 9.5L34.5 7.5V4.5V0M40 14.5L38.5 9.5V2.5M41 14.5L44 12L45.5 7.5" stroke="white" stroke-width="3"/>
</svg>
