<svg width="33" height="52" viewBox="0 0 33 52" fill="none" xmlns="http://www.w3.org/2000/svg">
<mask id="path-1-inside-1_23_28" fill="white">
<path d="M7 41.1667V10.8333L24.875 26L7 41.1667ZM10.25 33.2583L18.7812 26L10.25 18.7417V33.2583Z"/>
</mask>
<path d="M7 41.1667V10.8333L24.875 26L7 41.1667ZM10.25 33.2583L18.7812 26L10.25 18.7417V33.2583Z" fill="#005F86"/>
<path d="M7 41.1667H3V49.8064L9.58791 44.2167L7 41.1667ZM7 10.8333L9.58791 7.7833L3 2.19356V10.8333H7ZM24.875 26L27.4629 29.05L31.0576 26L27.4629 22.95L24.875 26ZM10.25 33.2583H6.25V41.9133L12.842 36.3049L10.25 33.2583ZM18.7812 26L21.3732 29.0466L24.9541 26L21.3732 22.9534L18.7812 26ZM10.25 18.7417L12.842 15.6951L6.25 10.0867V18.7417H10.25ZM11 41.1667V10.8333H3V41.1667H11ZM4.41209 13.8834L22.2871 29.05L27.4629 22.95L9.58791 7.7833L4.41209 13.8834ZM22.2871 22.95L4.41209 38.1166L9.58791 44.2167L27.4629 29.05L22.2871 22.95ZM12.842 36.3049L21.3732 29.0466L16.1893 22.9534L7.658 30.2118L12.842 36.3049ZM21.3732 22.9534L12.842 15.6951L7.658 21.7882L16.1893 29.0466L21.3732 22.9534ZM6.25 18.7417V33.2583H14.25V18.7417H6.25Z" fill="#005F86" mask="url(#path-1-inside-1_23_28)"/>
</svg>
